<svg width="138" height="91" viewBox="0 0 138 91" fill="none" xmlns="http://www.w3.org/2000/svg">
<path d="M15.4795 91V4.728H26.9995V91H15.4795ZM0.5035 40.696V30.2H41.9755V40.696H0.5035ZM67.0845 91V73.336H89.4845C94.9458 73.336 99.7245 72.2693 103.821 70.136C107.917 67.9173 111.074 64.7173 113.293 60.536C115.511 56.3547 116.621 51.4053 116.621 45.688C116.621 39.9707 115.469 35.064 113.165 30.968C110.946 26.872 107.789 23.7147 103.693 21.496C99.6818 19.2773 94.9458 18.168 89.4845 18.168H66.4445V0.631996H89.7405C96.5672 0.631996 102.839 1.74133 108.557 3.96C114.359 6.09333 119.394 9.208 123.661 13.304C128.013 17.3147 131.341 22.0933 133.645 27.64C136.034 33.1013 137.229 39.16 137.229 45.816C137.229 52.3867 136.034 58.4453 133.645 63.992C131.341 69.5387 128.055 74.3173 123.789 78.328C119.522 82.3387 114.487 85.4533 108.685 87.672C102.967 89.8907 96.7378 91 89.9965 91H67.0845ZM53.5165 91V0.631996H73.6125V91H53.5165Z" fill="black"/>
</svg>
